<?xml version="1.0" encoding="utf-8"?>
<!-- Generator: Adobe Illustrator 17.0.0, SVG Export Plug-In . SVG Version: 6.00 Build 0)  -->
<!DOCTYPE svg PUBLIC "-//W3C//DTD SVG 1.1//EN" "http://www.w3.org/Graphics/SVG/1.1/DTD/svg11.dtd">
<svg version="1.1" id="Layer_1" xmlns="http://www.w3.org/2000/svg" xmlns:xlink="http://www.w3.org/1999/xlink" x="0px" y="0px"
	 width="99.208px" height="55.808px" viewBox="0 0 99.208 55.808" enable-background="new 0 0 99.208 55.808" xml:space="preserve">
<g>
	<path fill="#FFFFFF" d="M1.723,27.882c0.001-0.902,0.732-1.632,1.634-1.632h88.55L68.554,2.897c-0.612-0.633-0.612-1.637,0-2.27
		c0.627-0.649,1.661-0.667,2.31-0.04l26.142,26.142c0,0,0,0,0,0c0.638,0.638,0.638,1.672,0,2.31L70.865,55.181
		c-0.013,0.014-0.027,0.027-0.04,0.04c-0.649,0.627-1.683,0.609-2.31-0.04c-0.627-0.649-0.609-1.683,0.04-2.31l23.353-23.353H3.357
		c-0.001,0-0.001,0-0.002,0c-0.902-0.001-1.632-0.732-1.632-1.634C1.723,27.883,1.723,27.883,1.723,27.882z"/>
</g>
</svg>
