<?xml version="1.0" encoding="utf-8"?>
<!-- Generator: Adobe Illustrator 17.0.0, SVG Export Plug-In . SVG Version: 6.00 Build 0)  -->
<!DOCTYPE svg PUBLIC "-//W3C//DTD SVG 1.1//EN" "http://www.w3.org/Graphics/SVG/1.1/DTD/svg11.dtd">
<svg version="1.1" id="Layer_1" xmlns="http://www.w3.org/2000/svg" xmlns:xlink="http://www.w3.org/1999/xlink" x="0px" y="0px"
	 width="99.208px" height="55.808px" viewBox="0 0 99.208 55.808" enable-background="new 0 0 99.208 55.808" xml:space="preserve">
<g>
	<path fill="#FFFFFF" d="M97.485,27.884c0.001,0.902-0.73,1.633-1.632,1.634c-0.001,0-0.001,0-0.002,0H7.301L30.654,52.87
		c0.649,0.627,0.667,1.661,0.04,2.31c-0.627,0.649-1.661,0.667-2.31,0.04c-0.014-0.013-0.027-0.027-0.04-0.04L2.202,29.039
		c-0.638-0.638-0.638-1.672,0-2.31c0,0,0,0,0,0L28.344,0.587c0.649-0.627,1.683-0.609,2.31,0.04c0.611,0.633,0.611,1.637,0,2.27
		L7.301,26.25h88.55c0.902-0.001,1.633,0.73,1.634,1.632C97.485,27.883,97.485,27.883,97.485,27.884z"/>
</g>
</svg>
