<?xml version="1.0" encoding="utf-8"?>
<!DOCTYPE svg PUBLIC "-//W3C//DTD SVG 1.1//EN" "http://www.w3.org/Graphics/SVG/1.1/DTD/svg11.dtd">
<svg version="1.1" id="Layer_5" xmlns="http://www.w3.org/2000/svg" xmlns:xlink="http://www.w3.org/1999/xlink" x="0px" y="0px"
	 width="470.84px" height="31.097px" viewBox="0 0 470.84 31.097" enable-background="new 0 0 470.84 31.097" xml:space="preserve">
<path id="XMLID_15_" fill-rule="evenodd" clip-rule="evenodd" fill="#DDD0CE" d="M256.204,18.288
	c0.819,0.219,1.644,0.414,2.474,0.585c7.629,1.57,15.467,1.351,23.005-0.585c-7.538-1.935-15.376-2.156-23.005-0.586
	C257.847,17.872,257.022,18.068,256.204,18.288L256.204,18.288z M243.968,14.513c-2.043,1.044-4.061,2.137-6.055,3.274l-1.173,0.668
	c2.365,1.273,4.765,2.481,7.2,3.611c2.491-1.519,5.13-2.809,7.883-3.779C249.08,17.32,246.45,16.031,243.968,14.513z M228.45,23.056
	c2.479,1.648,4.811,3.527,6.97,5.575c2.159-2.049,4.491-3.928,6.97-5.575c-2.345-1.243-4.662-2.539-6.97-3.849
	C233.111,20.517,230.795,21.813,228.45,23.056z M226.898,22.067c2.436-1.131,4.836-2.339,7.201-3.611l-1.172-0.668
	c-1.993-1.137-4.011-2.229-6.054-3.274c-2.482,1.517-5.112,2.806-7.856,3.774C221.769,19.258,224.408,20.548,226.898,22.067z
	 M228.108,13.731c1.837,0.949,3.653,1.937,5.45,2.961c0.618,0.352,1.239,0.701,1.862,1.045c0.623-0.344,1.244-0.692,1.863-1.045
	c1.796-1.024,3.613-2.012,5.449-2.961c-2.603-1.704-5.054-3.649-7.312-5.79C233.161,10.081,230.712,12.026,228.108,13.731z
	 M214.637,18.288c-0.819-0.22-1.644-0.416-2.474-0.586c-7.629-1.57-15.467-1.349-23.005,0.586
	c7.536,1.935,15.379,2.154,23.005,0.585C212.993,18.702,213.817,18.507,214.637,18.288z M243.841,23.816
	c-3.006,1.931-5.812,4.198-8.343,6.718l-0.069,0.069l-0.008-0.008l-0.009,0.009l-0.07-0.07c-2.532-2.52-5.338-4.787-8.344-6.718
	c-4.712,2.436-9.581,4.64-14.67,6.163l-0.094,0.028l-0.631-2.093l0.095-0.028c4.649-1.391,9.194-3.116,13.623-5.099
	c-2.656-1.556-5.47-2.857-8.395-3.817c-1.473,0.445-2.965,0.823-4.471,1.133c-8.545,1.766-17.554,1.386-25.917-1.107
	c-0.831-0.248-0.813-1.175,0.01-1.42c8.36-2.49,17.364-2.868,25.907-1.104c1.507,0.311,2.999,0.69,4.471,1.135
	c2.957-0.972,5.8-2.26,8.487-3.829c-26.468-13.142-49.974-13.997-78.297-6.08c-17.069,4.771-33.817,10.563-50.712,15.898
	c-20.501,6.474-43.148,9.368-64.517,6.229C20.199,28.109,7.305,24.006,0.109,13.993L0,13.922l2.852-2.07l0.072,0.072l0.005,0.007
	c6.924,9.641,17.784,14.791,29.31,16.484c10.381,1.525,21.387,0.796,31.719-0.803c10.581-1.637,21.07-4.284,31.299-7.426
	c17.194-5.282,34.047-11.638,51.418-16.347c7.174-1.945,14.511-3.194,21.931-3.647c7.119-0.434,14.249-0.131,21.307,0.893
	c12.872,1.869,25.175,6.083,36.772,11.92c3.087-1.94,6.072-4.394,8.655-6.965l0.068-0.068l0.01,0.01l0.01-0.009l0.067,0.067
	c2.584,2.571,5.568,5.025,8.656,6.965c11.598-5.837,23.901-10.052,36.773-11.92c7.057-1.025,14.188-1.327,21.307-0.893
	c7.42,0.453,14.758,1.702,21.931,3.647c17.371,4.709,34.225,11.064,51.419,16.347c10.229,3.142,20.718,5.789,31.298,7.426
	c10.333,1.599,21.339,2.328,31.72,0.803c11.527-1.693,22.387-6.843,29.311-16.484l0.004-0.005l0.071-0.074l2.853,2.071l-0.109,0.07
	c-7.196,10.014-20.09,14.116-31.778,15.833c-21.369,3.139-44.016,0.245-64.517-6.229c-16.895-5.335-33.643-11.127-50.712-15.898
	c-28.322-7.917-51.829-7.062-78.296,6.08c2.687,1.569,5.53,2.857,8.487,3.829c1.472-0.445,2.965-0.824,4.472-1.135
	c8.542-1.764,17.547-1.386,25.906,1.104c0.823,0.245,0.84,1.172,0.01,1.42c-8.362,2.493-17.372,2.872-25.916,1.107
	c-1.507-0.31-3-0.688-4.472-1.133c-2.925,0.96-5.741,2.262-8.396,3.817c4.428,1.983,8.974,3.708,13.623,5.099l0.095,0.028
	l-0.631,2.093l-0.095-0.028C253.422,28.456,248.552,26.253,243.841,23.816z"/>
</svg>
